<svg width="535" height="442" viewBox="0 0 535 442" fill="none" xmlns="http://www.w3.org/2000/svg">
<g clip-path="url(#clip0_746_11538)">
<path d="M393.357 52.6051C395.345 59.3033 396.352 66.254 396.347 73.2406V186.192C396.347 186.353 396.283 186.507 396.169 186.621C396.055 186.735 395.9 186.799 395.739 186.799H252.215C252.135 186.8 252.055 186.785 251.981 186.755C251.906 186.725 251.838 186.68 251.781 186.624C251.724 186.568 251.678 186.5 251.647 186.426C251.616 186.352 251.6 186.272 251.6 186.192V73.2406C251.594 66.254 252.601 59.3033 254.59 52.6051C255.356 50.0544 256.26 47.5468 257.296 45.0933C260.501 37.5109 264.984 30.5339 270.549 24.4658C271.275 23.6776 272.032 22.8893 272.798 22.1011C277.606 17.309 283.067 13.2173 289.017 9.94678C291.22 8.73211 293.485 7.63235 295.802 6.65199C298.688 5.43274 301.65 4.40073 304.669 3.56225C308.972 2.36788 313.378 1.57625 317.828 1.1976C319.855 1.03207 321.922 0.945312 323.973 0.945312C326.024 0.945312 328.091 1.03207 330.119 1.1976C334.57 1.57246 338.975 2.36415 343.278 3.56225C346.297 4.39555 349.259 5.42508 352.145 6.6442C354.465 7.62531 356.733 8.72766 358.937 9.94678C364.891 13.2319 370.351 17.3395 375.157 22.1484C375.946 22.9366 376.679 23.7248 377.405 24.513C382.971 30.5811 387.454 37.5582 390.659 45.1407C391.694 47.5777 392.595 50.0695 393.357 52.6051V52.6051Z" fill="#B5AEFF" stroke="#2F2A47" stroke-miterlimit="10"/>
<path d="M393.357 52.6051C395.345 59.3033 396.352 66.254 396.347 73.2406V186.192C396.347 186.353 396.283 186.507 396.169 186.621C396.055 186.735 395.9 186.799 395.739 186.799H252.215C252.135 186.8 252.055 186.785 251.981 186.755C251.906 186.725 251.838 186.68 251.781 186.624C251.724 186.568 251.678 186.5 251.647 186.426C251.616 186.352 251.6 186.272 251.6 186.192V73.2406C251.594 66.254 252.601 59.3033 254.59 52.6051C255.356 50.0544 256.26 47.5468 257.296 45.0933C260.501 37.5109 264.984 30.5339 270.549 24.4658C271.275 23.6776 272.032 22.8893 272.798 22.1011C277.606 17.309 283.067 13.2173 289.017 9.94678C291.22 8.73211 293.485 7.63235 295.802 6.65199C298.688 5.43274 301.65 4.40073 304.669 3.56225C308.972 2.36788 313.378 1.57625 317.828 1.1976C319.855 1.03207 321.922 0.945312 323.973 0.945312C326.024 0.945312 328.091 1.03207 330.119 1.1976C334.57 1.57246 338.975 2.36415 343.278 3.56225C346.297 4.39555 349.259 5.42508 352.145 6.6442C354.465 7.62531 356.733 8.72766 358.937 9.94678C364.891 13.2319 370.351 17.3395 375.157 22.1484C375.946 22.9366 376.679 23.7248 377.405 24.513C382.971 30.5811 387.454 37.5582 390.659 45.1407C391.694 47.5777 392.595 50.0695 393.357 52.6051V52.6051Z" stroke="#2F2A47" stroke-miterlimit="10"/>
<path d="M263.97 203.273V73.2172C263.964 67.4236 264.799 61.6597 266.447 56.1051C267.076 53.9916 267.824 51.9153 268.688 49.886C271.343 43.6066 275.057 37.8291 279.669 32.8053C280.276 32.1353 280.908 31.4811 281.547 30.8427C285.518 26.8576 290.033 23.453 294.958 20.7299C296.785 19.7174 298.665 18.8043 300.591 17.9947C302.981 16.9831 305.434 16.1274 307.935 15.433C311.497 14.4544 315.141 13.8079 318.822 13.5019C320.526 13.36 322.238 13.2891 323.942 13.2891C325.646 13.2891 327.358 13.36 329.046 13.494C332.751 13.8133 336.419 14.4729 340.004 15.4645C342.504 16.1613 344.957 17.0169 347.348 18.0263C349.267 18.8365 351.142 19.7468 352.965 20.7535C357.889 23.4812 362.404 26.8883 366.377 30.8742C367.023 31.5127 367.655 32.1748 368.262 32.8448C372.875 37.8735 376.589 43.6563 379.243 49.9411C380.097 51.968 380.842 54.0386 381.476 56.1444C383.124 61.7018 383.958 67.4682 383.953 73.2644V203.32L263.97 203.273Z" fill="#EAC9F8" stroke="#2F2A47" stroke-miterlimit="10"/>
<path d="M276.34 190.922V73.241C276.331 68.6434 276.99 64.0687 278.296 59.66C278.801 57.9818 279.396 56.3321 280.079 54.718C282.176 49.7371 285.111 45.1517 288.757 41.1606C289.246 40.6246 289.751 40.0965 290.256 39.5841C293.417 36.4172 297.01 33.7131 300.93 31.5523C302.38 30.7468 303.873 30.0206 305.403 29.3768C307.301 28.5763 309.248 27.897 311.233 27.3431C314.051 26.569 316.935 26.0572 319.847 25.814C321.212 25.7037 322.585 25.6406 323.942 25.6406C325.299 25.6406 326.671 25.7037 328.02 25.814C330.942 26.0546 333.834 26.5692 336.659 27.351C338.644 27.8974 340.592 28.5742 342.489 29.3768C344.007 30.0219 345.492 30.7427 346.938 31.5365C350.859 33.7045 354.457 36.4107 357.627 39.5762C358.132 40.0807 358.637 40.6167 359.126 41.1527C362.787 45.1462 365.735 49.7371 367.844 54.7258C368.522 56.3265 369.112 57.9632 369.611 59.6285C370.923 64.0442 371.584 68.6271 371.575 73.2332V190.914L276.34 190.922Z" fill="#C2E6F5" stroke="#2F2A47" stroke-miterlimit="10"/>
<path d="M304.654 63.1835C305.031 61.942 305.473 60.7212 305.979 59.5262C307.531 55.841 309.709 52.4516 312.416 49.5079C312.795 49.0901 313.205 48.7197 313.552 48.3099C315.889 45.9718 318.545 43.9762 321.441 42.3825C322.519 41.7855 323.628 41.2461 324.762 40.7666C326.169 40.1713 327.613 39.6684 329.086 39.2611C329.788 39.064 330.514 38.9221 331.231 38.7724C329.844 38.4759 328.44 38.2628 327.027 38.134C326.025 38.0473 324.999 38.0078 323.981 38.0078C322.964 38.0078 321.946 38.0473 320.913 38.134C318.779 38.315 316.666 38.6922 314.602 39.2611C313.13 39.6696 311.686 40.1725 310.278 40.7666C309.144 41.2476 308.036 41.787 306.957 42.3825C304.062 43.9777 301.406 45.9732 299.068 48.3099C298.682 48.6961 298.279 49.098 297.924 49.5079C295.219 52.4534 293.041 55.8424 291.487 59.5262C290.98 60.72 290.541 61.941 290.169 63.1835C289.203 66.4485 288.717 69.8364 288.726 73.2412V219.755H303.21V73.2412C303.205 69.8367 303.691 66.4493 304.654 63.1835V63.1835Z" fill="#5E58A5" stroke="#2F2A47" stroke-miterlimit="10"/>
<path d="M357.778 63.143C357.419 61.9201 356.987 60.7199 356.484 59.5488C354.926 55.8623 352.748 52.4687 350.046 49.5147C349.668 49.1049 349.258 48.7265 348.918 48.3245C346.568 45.9744 343.899 43.9659 340.99 42.3578C339.921 41.7773 338.823 41.2512 337.7 40.7813C336.301 40.1886 334.865 39.6883 333.401 39.2837C332.683 39.0866 331.957 38.9369 331.223 38.7871C330.506 38.9369 329.78 39.0787 329.078 39.2758C327.605 39.6831 326.161 40.186 324.754 40.7813C323.62 41.2608 322.511 41.8002 321.433 42.3972C318.537 43.9909 315.881 45.9865 313.544 48.3245C313.166 48.7107 312.755 49.1127 312.408 49.5226C309.701 52.4663 307.523 55.8557 305.971 59.5409C305.465 60.736 305.023 61.9568 304.646 63.1983C303.683 66.4641 303.197 69.8514 303.202 73.2558V219.77H359.213V73.2401C359.23 69.8225 358.746 66.4208 357.778 63.143V63.143Z" fill="black" stroke="black" stroke-width="2" stroke-miterlimit="10"/>
<g clip-path="url(#clip1_746_11538)">
<path d="M313.845 139.303C313.845 139.224 313.845 139.145 313.845 139.066C313.847 136.028 315.055 133.115 317.205 130.968C319.354 128.82 322.268 127.614 325.306 127.614C328.221 127.615 331.026 128.728 333.148 130.727C334.174 128.34 335.877 126.305 338.048 124.876C340.218 123.447 342.759 122.686 345.358 122.687C348.799 122.682 352.106 124.017 354.58 126.408C355.853 123.411 357.979 120.856 360.694 119.059C363.409 117.262 366.592 116.303 369.848 116.303C374.238 116.303 378.448 118.047 381.552 121.151C384.656 124.255 386.4 128.465 386.4 132.855C386.401 135.061 385.961 137.245 385.108 139.279L313.845 139.303Z" fill="white" stroke="#2F2A47" stroke-miterlimit="10"/>
<path d="M344.593 110.564C343.157 110.564 341.992 109.399 341.992 107.962C341.992 106.526 343.157 105.361 344.593 105.361C346.03 105.361 347.194 106.526 347.194 107.962C347.194 109.399 346.03 110.564 344.593 110.564Z" fill="white"/>
<path d="M317.029 121.292C315.484 121.292 314.231 120.039 314.231 118.493C314.231 116.948 315.484 115.695 317.029 115.695C318.574 115.695 319.827 116.948 319.827 118.493C319.827 120.039 318.574 121.292 317.029 121.292Z" fill="white"/>
<path d="M321.404 150.321C319.967 150.321 318.803 149.157 318.803 147.72C318.803 146.284 319.967 145.119 321.404 145.119C322.84 145.119 324.005 146.284 324.005 147.72C324.005 149.157 322.84 150.321 321.404 150.321Z" fill="white"/>
<path d="M350.119 150.141C349.623 150.141 349.22 149.739 349.22 149.242C349.22 148.746 349.623 148.344 350.119 148.344C350.615 148.344 351.018 148.746 351.018 149.242C351.018 149.739 350.615 150.141 350.119 150.141Z" fill="white"/>
<path d="M305.813 104.795C305.317 104.795 304.915 104.393 304.915 103.897C304.915 103.4 305.317 102.998 305.813 102.998C306.31 102.998 306.712 103.4 306.712 103.897C306.712 104.393 306.31 104.795 305.813 104.795Z" fill="white"/>
<path d="M319.836 60.4417C319.34 60.4417 318.937 60.0394 318.937 59.5431C318.937 59.0468 319.34 58.6445 319.836 58.6445C320.332 58.6445 320.734 59.0468 320.734 59.5431C320.734 60.0394 320.332 60.4417 319.836 60.4417Z" fill="white"/>
<path d="M343.694 176.758C343.198 176.758 342.796 176.356 342.796 175.86C342.796 175.363 343.198 174.961 343.694 174.961C344.19 174.961 344.593 175.363 344.593 175.86C344.593 176.356 344.19 176.758 343.694 176.758Z" fill="white"/>
<path d="M346.398 58.0139C345.902 58.0139 345.5 57.6116 345.5 57.1154C345.5 56.6191 345.902 56.2168 346.398 56.2168C346.895 56.2168 347.297 56.6191 347.297 57.1154C347.297 57.6116 346.895 58.0139 346.398 58.0139Z" fill="white"/>
<path d="M304.008 152.537C303.511 152.537 303.109 152.135 303.109 151.639C303.109 151.143 303.511 150.74 304.008 150.74C304.504 150.74 304.906 151.143 304.906 151.639C304.906 152.135 304.504 152.537 304.008 152.537Z" fill="white"/>
<path d="M262.997 62.9313C261.659 61.4454 260.921 59.5158 260.924 57.5163C260.923 56.4467 261.133 55.3875 261.542 54.3991C261.951 53.4108 262.55 52.5128 263.307 51.7565C264.063 51.0002 264.961 50.4005 265.949 49.9917C266.938 49.5829 267.997 49.373 269.067 49.3741C270.27 49.3731 271.458 49.6425 272.543 50.1623C272.652 47.5427 273.77 45.0668 275.661 43.2514C277.553 41.4361 280.073 40.4217 282.695 40.4199C284.683 40.4215 286.627 41.0052 288.287 42.0992C289.947 43.1932 291.25 44.7495 292.035 46.5758C293.082 46.1631 294.197 45.9518 295.322 45.9531C297.468 45.9536 299.545 46.7123 301.187 48.0954C302.828 49.4785 303.928 51.397 304.292 53.5122C305.034 53.2796 305.808 53.1626 306.586 53.1653C308.616 53.1653 310.562 53.9717 311.998 55.407C313.433 56.8423 314.239 58.7891 314.239 60.819C314.238 61.5342 314.135 62.2455 313.932 62.9313H262.997Z" fill="white" stroke="#2F2A47" stroke-miterlimit="10"/>
<path fill-rule="evenodd" clip-rule="evenodd" d="M312.402 172.407C313.312 173.331 313.826 174.572 313.837 175.868C313.847 174.572 314.362 173.331 315.271 172.407C316.192 171.498 317.43 170.984 318.724 170.973C317.432 170.962 316.194 170.451 315.271 169.546C314.363 168.622 313.848 167.382 313.837 166.086C313.826 167.38 313.314 168.62 312.41 169.546C311.484 170.451 310.244 170.962 308.95 170.973C310.242 170.988 311.479 171.502 312.402 172.407V172.407Z" fill="white"/>
<path fill-rule="evenodd" clip-rule="evenodd" d="M328.419 102.382C329.007 102.98 329.34 103.782 329.349 104.62C329.357 103.783 329.687 102.982 330.271 102.382C330.869 101.795 331.672 101.464 332.51 101.46C331.671 101.451 330.869 101.118 330.271 100.53C329.689 99.9316 329.359 99.1331 329.349 98.2988C329.339 99.1331 329.009 99.9316 328.427 100.53C327.829 101.118 327.027 101.451 326.188 101.46C326.602 101.459 327.013 101.541 327.395 101.699C327.778 101.857 328.126 102.089 328.419 102.382V102.382Z" fill="white"/>
<path fill-rule="evenodd" clip-rule="evenodd" d="M328.419 46.2374C329.007 46.8317 329.341 47.6318 329.349 48.468C329.357 47.6332 329.687 46.8339 330.271 46.2374C330.869 45.6493 331.671 45.3159 332.51 45.3072C331.672 45.3032 330.869 44.9723 330.271 44.385C329.687 43.7851 329.357 42.9835 329.349 42.1465C329.341 42.9835 329.011 43.7851 328.427 44.385C327.829 44.9723 327.026 45.3032 326.188 45.3072C327.024 45.3155 327.825 45.6491 328.419 46.2374V46.2374Z" fill="white"/>
<path d="M302.865 19.4926C303.146 19.4749 303.416 19.3781 303.645 19.2136C303.874 19.0491 304.051 18.8234 304.158 18.5625L307.232 11.1139C307.31 10.9306 307.35 10.7336 307.35 10.5346C307.35 10.3355 307.31 10.1385 307.232 9.95522C307.074 9.60526 306.793 9.32498 306.443 9.16701L299.799 6.43192C299.433 6.27857 299.021 6.27524 298.652 6.42268C298.284 6.57012 297.988 6.85654 297.828 7.22013L294.754 14.6687C294.645 14.93 294.613 15.2167 294.66 15.4957C294.708 15.7747 294.833 16.0346 295.022 16.2452C295.208 16.4584 295.45 16.6152 295.72 16.6974C295.99 16.7796 296.278 16.784 296.551 16.7102L299.759 15.8353C299.769 15.8304 299.78 15.8279 299.791 15.8279C299.802 15.8279 299.813 15.8304 299.822 15.8353L301.486 18.7123C301.618 18.9586 301.816 19.1629 302.059 19.3022C302.301 19.4415 302.578 19.5102 302.857 19.5005L302.865 19.4926Z" fill="#5E58A5"/>
<path d="M264.51 83.0072C264.958 83.0069 265.396 82.8764 265.772 82.6315C266.147 82.3865 266.442 82.0378 266.623 81.6278C266.866 81.0685 266.877 80.4358 266.654 79.8683C266.431 79.3008 265.991 78.845 265.433 78.6011L231.295 63.7117C230.735 63.4708 230.103 63.4607 229.537 63.6837C228.97 63.9066 228.514 64.3444 228.268 64.9019C228.025 65.4611 228.014 66.094 228.237 66.6615C228.46 67.229 228.899 67.6847 229.458 67.9286L263.596 82.8101C263.884 82.9392 264.195 83.0064 264.51 83.0072V83.0072Z" fill="#C2E6F5" stroke="black" stroke-width="1.5" stroke-miterlimit="10"/>
<path d="M261.752 36.6999C262.015 36.7851 262.297 36.7925 262.564 36.7211C262.831 36.6498 263.072 36.5028 263.257 36.2979C263.508 36.0163 263.638 35.6469 263.617 35.2702C263.596 34.8935 263.427 34.5404 263.147 34.288L253.192 24.6717C252.911 24.4211 252.543 24.292 252.168 24.3127C251.792 24.3334 251.441 24.5022 251.19 24.7821C251.064 24.921 250.968 25.0834 250.905 25.2598C250.843 25.4362 250.816 25.6232 250.827 25.81C250.837 25.9969 250.884 26.1797 250.965 26.3483C251.046 26.5168 251.16 26.6677 251.3 26.792L261.255 36.4082C261.4 36.5377 261.568 36.6368 261.752 36.6999V36.6999Z" fill="#C2E6F5" stroke="black" stroke-width="1.5" stroke-miterlimit="10"/>
<path d="M281.796 144.031C282.141 144.073 282.469 144.206 282.746 144.417C283.023 144.627 283.239 144.908 283.372 145.229C283.472 145.467 283.524 145.723 283.524 145.981C283.525 146.239 283.475 146.494 283.377 146.733C283.279 146.972 283.135 147.189 282.953 147.372C282.771 147.555 282.554 147.7 282.316 147.799C281.318 148.233 280.488 148.98 279.951 149.927C278.984 151.479 277.565 152.698 275.884 153.419C274.207 154.137 272.348 154.318 270.564 153.939C269.53 153.687 268.444 153.767 267.458 154.168H267.356C266.384 154.606 265.576 155.339 265.046 156.264C264.079 157.832 262.654 159.065 260.963 159.796C259.285 160.511 257.429 160.696 255.643 160.324C254.61 160.073 253.524 160.15 252.537 160.544H252.498C251.546 160.986 250.754 161.71 250.228 162.617C249.262 164.167 247.845 165.386 246.168 166.109C244.487 166.821 242.629 167.005 240.84 166.637C239.789 166.38 238.684 166.468 237.687 166.89C236.669 167.321 235.819 168.074 235.267 169.033C234.296 170.582 232.878 171.799 231.2 172.525C230.962 172.627 230.706 172.68 230.448 172.683C230.189 172.686 229.932 172.637 229.692 172.541C229.452 172.444 229.233 172.301 229.048 172.12C228.864 171.939 228.716 171.723 228.615 171.485C228.514 171.247 228.46 170.992 228.458 170.734C228.455 170.476 228.504 170.22 228.6 169.98C228.697 169.741 228.84 169.523 229.021 169.339C229.202 169.155 229.418 169.008 229.655 168.907C230.651 168.458 231.479 167.705 232.02 166.756C232.985 165.194 234.416 163.976 236.111 163.272C237.779 162.551 239.63 162.367 241.408 162.744C242.479 163.002 243.605 162.913 244.624 162.491C245.634 162.049 246.477 161.295 247.028 160.339C247.947 158.859 249.286 157.684 250.874 156.966V156.966H250.953L251.118 156.903C252.735 156.256 254.506 156.1 256.21 156.454C257.279 156.716 258.404 156.628 259.418 156.201C260.429 155.759 261.272 155.005 261.822 154.049C262.78 152.514 264.186 151.309 265.85 150.597C267.512 149.893 269.349 149.714 271.115 150.085C272.184 150.347 273.309 150.259 274.324 149.833C275.337 149.395 276.181 148.64 276.728 147.681C277.695 146.121 279.125 144.903 280.818 144.197C281.125 144.058 281.461 144.001 281.796 144.031V144.031Z" fill="#B5AEFF" stroke="#2E2A47" stroke-width="1.4" stroke-miterlimit="10"/>
<path fill-rule="evenodd" clip-rule="evenodd" d="M247.446 114.868C247.593 114.868 247.734 114.81 247.839 114.707C247.944 114.604 248.003 114.463 248.005 114.316C248.03 111.906 248.984 109.599 250.67 107.877C252.392 106.195 254.695 105.241 257.102 105.212C257.248 105.212 257.388 105.154 257.492 105.051C257.595 104.947 257.653 104.807 257.653 104.661C257.654 104.588 257.641 104.515 257.614 104.447C257.586 104.379 257.546 104.317 257.494 104.265C257.443 104.213 257.382 104.172 257.315 104.144C257.247 104.115 257.175 104.101 257.102 104.101C254.694 104.077 252.389 103.122 250.67 101.437C248.986 99.7163 248.032 97.4122 248.005 95.005C248.005 94.8566 247.947 94.7142 247.842 94.6093C247.737 94.5043 247.594 94.4453 247.446 94.4453C247.373 94.4453 247.3 94.4598 247.233 94.488C247.165 94.5163 247.104 94.5577 247.053 94.6097C247.002 94.6618 246.961 94.7236 246.934 94.7914C246.907 94.8593 246.893 94.9319 246.894 95.005C246.864 97.4113 245.91 99.714 244.23 101.437C242.507 103.122 240.2 104.076 237.79 104.101C237.717 104.101 237.645 104.115 237.577 104.144C237.51 104.172 237.449 104.213 237.397 104.265C237.346 104.317 237.305 104.379 237.278 104.447C237.251 104.515 237.237 104.588 237.238 104.661C237.238 104.807 237.297 104.947 237.4 105.051C237.504 105.154 237.644 105.212 237.79 105.212C240.197 105.242 242.499 106.196 244.222 107.877C245.908 109.599 246.866 111.906 246.894 114.316C246.894 114.389 246.908 114.46 246.936 114.527C246.964 114.594 247.004 114.655 247.056 114.706C247.107 114.758 247.168 114.798 247.235 114.826C247.302 114.854 247.373 114.868 247.446 114.868Z" fill="#EAC9F8"/>
<path d="M247.446 94.9649C247.422 97.5208 246.408 99.9679 244.616 101.791C242.795 103.585 240.347 104.6 237.79 104.621C240.345 104.64 242.793 105.652 244.616 107.442C246.41 109.267 247.425 111.717 247.446 114.276C247.467 111.717 248.481 109.267 250.276 107.442C252.099 105.652 254.546 104.64 257.102 104.621C254.546 104.596 252.099 103.582 250.276 101.791C248.484 99.9679 247.469 97.5208 247.446 94.9649M247.446 93.8535C247.592 93.8535 247.736 93.8823 247.871 93.9382C248.006 93.994 248.129 94.0758 248.232 94.179C248.335 94.2822 248.417 94.4048 248.473 94.5396C248.528 94.6745 248.557 94.819 248.557 94.9649V94.9649C248.582 97.224 249.477 99.3865 251.056 101.003C252.673 102.586 254.839 103.484 257.102 103.509C257.396 103.509 257.679 103.626 257.887 103.835C258.096 104.043 258.213 104.326 258.213 104.621C258.213 104.915 258.096 105.198 257.887 105.406C257.679 105.615 257.396 105.732 257.102 105.732C254.84 105.757 252.675 106.651 251.056 108.231C249.477 109.85 248.582 112.015 248.557 114.276C248.557 114.422 248.528 114.567 248.473 114.702C248.417 114.836 248.335 114.959 248.232 115.062C248.129 115.165 248.006 115.247 247.871 115.303C247.736 115.359 247.592 115.388 247.446 115.388V115.388C247.151 115.388 246.868 115.271 246.66 115.062C246.452 114.854 246.334 114.571 246.334 114.276C246.309 112.013 245.411 109.847 243.828 108.231C242.212 106.651 240.049 105.756 237.79 105.732C237.495 105.732 237.213 105.615 237.004 105.406C236.796 105.198 236.679 104.915 236.679 104.621C236.679 104.326 236.796 104.043 237.004 103.835C237.213 103.626 237.495 103.509 237.79 103.509C240.053 103.484 242.219 102.586 243.836 101.003C245.414 99.3865 246.309 97.224 246.334 94.9649V94.9649C246.349 94.6791 246.472 94.4095 246.678 94.2116C246.885 94.0137 247.16 93.9025 247.446 93.9009V93.8535Z" fill="black"/>
<path d="M272.44 119.817C272.571 119.829 272.703 119.829 272.834 119.817C273.17 119.746 273.478 119.582 273.725 119.343C273.972 119.105 274.146 118.802 274.229 118.469L274.907 115.805L277.65 115.765C277.985 115.762 278.313 115.667 278.598 115.49C278.882 115.314 279.113 115.063 279.266 114.764C279.425 114.45 279.492 114.097 279.457 113.746C279.422 113.396 279.287 113.063 279.069 112.786L274.481 106.969C274.178 106.587 273.736 106.341 273.252 106.283H273.031C272.619 106.282 272.219 106.421 271.896 106.677L266.717 110.768C266.527 110.917 266.369 111.103 266.251 111.314C266.133 111.525 266.059 111.758 266.032 111.998C266.002 112.238 266.02 112.481 266.085 112.714C266.15 112.946 266.26 113.164 266.41 113.353L271.005 119.163C271.179 119.373 271.399 119.541 271.647 119.655C271.896 119.768 272.167 119.824 272.44 119.817V119.817Z" fill="#B5AEFF"/>
<path d="M273.031 106.829C272.744 106.82 272.464 106.915 272.242 107.097L267.056 111.188C266.927 111.289 266.82 111.416 266.74 111.559C266.66 111.702 266.61 111.86 266.591 112.023C266.553 112.353 266.646 112.684 266.851 112.945L271.446 118.754C271.561 118.902 271.708 119.022 271.876 119.104C272.044 119.186 272.229 119.228 272.416 119.227C272.505 119.236 272.595 119.236 272.684 119.227C272.913 119.177 273.123 119.065 273.292 118.902C273.46 118.739 273.58 118.532 273.638 118.305L274.379 115.341C274.392 115.301 274.417 115.266 274.451 115.24C274.484 115.215 274.525 115.201 274.568 115.2L277.618 115.16C277.845 115.158 278.067 115.093 278.26 114.974C278.454 114.854 278.61 114.684 278.714 114.482V114.482C278.814 114.271 278.854 114.037 278.829 113.804C278.804 113.572 278.715 113.351 278.572 113.166L273.977 107.357C273.875 107.228 273.749 107.121 273.605 107.041C273.462 106.961 273.304 106.91 273.141 106.892H272.991M272.991 105.709C273.088 105.701 273.186 105.701 273.283 105.709C273.601 105.743 273.909 105.841 274.188 105.996C274.467 106.152 274.711 106.363 274.907 106.616L279.494 112.425C279.779 112.78 279.958 113.208 280.01 113.66C280.061 114.112 279.984 114.569 279.786 114.979V115.042C279.584 115.436 279.278 115.767 278.902 116.001C278.525 116.234 278.092 116.36 277.65 116.366H275.356L274.796 118.589C274.688 119.031 274.456 119.432 274.128 119.748C273.8 120.063 273.39 120.279 272.944 120.37C272.776 120.409 272.604 120.427 272.432 120.425C272.066 120.425 271.705 120.341 271.376 120.182C271.047 120.022 270.759 119.79 270.532 119.503L265.937 113.694C265.538 113.185 265.357 112.539 265.432 111.897C265.509 111.257 265.834 110.674 266.339 110.273L271.525 106.182C271.952 105.846 272.479 105.662 273.023 105.662L272.991 105.709Z" fill="black"/>
<path d="M255.842 138.658C256.996 139.148 257.535 140.479 257.046 141.631C256.557 142.783 255.226 143.32 254.071 142.83L243.311 138.265C242.156 137.775 241.617 136.444 242.106 135.292C242.595 134.14 243.927 133.603 245.081 134.092L255.842 138.658Z" fill="#EAC9F8" stroke="#2E2A47" stroke-width="1.5" stroke-miterlimit="10"/>
<path d="M372.764 92.0098C372.317 92.01 371.88 91.8795 371.506 91.6344C371.132 91.3894 370.838 91.0404 370.66 90.6304C370.417 90.0711 370.405 89.4382 370.629 88.8708C370.852 88.3033 371.291 87.8476 371.85 87.6037L405.995 72.7063C406.555 72.4633 407.187 72.4521 407.755 72.6753C408.322 72.8984 408.778 73.3377 409.022 73.8966C409.263 74.4549 409.273 75.0858 409.05 75.6514C408.827 76.217 408.389 76.6714 407.832 76.9154L373.678 91.8048C373.39 91.9334 373.08 92.0031 372.764 92.0098V92.0098Z" fill="#C2E6F5" stroke="black" stroke-width="1.5" stroke-miterlimit="10"/>
<path d="M390.649 60.4817C390.358 60.4822 390.074 60.3983 389.831 60.2401C389.587 60.082 389.395 59.8565 389.277 59.591C389.122 59.2251 389.117 58.8124 389.265 58.4433C389.413 58.0741 389.7 57.7783 390.065 57.6205L403.158 51.3148C403.522 51.1596 403.934 51.1555 404.302 51.3032C404.67 51.451 404.964 51.7386 405.12 52.103C405.198 52.2835 405.24 52.4776 405.242 52.6742C405.245 52.8708 405.208 53.066 405.135 53.2485C405.062 53.4309 404.953 53.5971 404.815 53.7373C404.677 53.8776 404.513 53.9891 404.332 54.0656L391.24 60.3714C391.053 60.4497 390.851 60.4874 390.649 60.4817Z" fill="#EAC9F8" stroke="black" stroke-width="1.58" stroke-miterlimit="10"/>
<path d="M409.203 111.51C405.66 111.51 402.787 108.637 402.787 105.094C402.787 101.55 405.66 98.6777 409.203 98.6777C412.747 98.6777 415.619 101.55 415.619 105.094C415.619 108.637 412.747 111.51 409.203 111.51Z" stroke="#C2E6F5" stroke-width="1.5" stroke-miterlimit="10"/>
<path fill-rule="evenodd" clip-rule="evenodd" d="M398.2 166.181C400.761 168.787 402.211 172.285 402.243 175.939C402.276 172.285 403.726 168.787 406.287 166.181C408.891 163.622 412.386 162.172 416.037 162.138C412.387 162.107 408.891 160.66 406.287 158.102C403.726 155.495 402.277 151.997 402.243 148.344C402.214 151.998 400.764 155.498 398.2 158.102C395.596 160.66 392.1 162.107 388.45 162.138C392.1 162.175 395.594 163.624 398.2 166.181Z" fill="#C2E6F5"/>
<path d="M406.618 166.511C409.132 164.033 412.507 162.621 416.037 162.57V161.632C412.507 161.581 409.132 160.169 406.618 157.691C404.129 155.168 402.716 151.777 402.677 148.232H401.731C401.702 151.771 400.304 155.161 397.829 157.691C395.315 160.169 391.94 161.581 388.41 161.632V162.57C391.94 162.625 395.312 164.036 397.829 166.511C400.304 169.041 401.702 172.431 401.731 175.97H402.677C402.716 172.426 404.129 169.035 406.618 166.511ZM398.531 158.432C400.337 156.615 401.62 154.344 402.243 151.858C402.867 154.344 404.15 156.615 405.956 158.432C407.769 160.239 410.038 161.519 412.522 162.137C410.038 162.759 407.769 164.042 405.956 165.849C404.15 167.667 402.867 169.938 402.243 172.423C401.62 169.938 400.337 167.667 398.531 165.849V165.849C396.727 164.041 394.466 162.758 391.989 162.137C394.462 161.51 396.721 160.231 398.531 158.432V158.432Z" fill="#2E2A47"/>
<path d="M396.269 7.66934C396.614 7.6294 396.963 7.68122 397.281 7.81964C397.6 7.95805 397.876 8.17814 398.082 8.45756C398.233 8.66704 398.341 8.90427 398.4 9.15562C398.459 9.40697 398.468 9.66747 398.426 9.92228C398.385 10.1771 398.293 10.4212 398.157 10.6406C398.021 10.8599 397.842 11.0502 397.632 11.2005C396.748 11.8474 396.1 12.7668 395.788 13.8175C395.202 15.5451 394.102 17.0522 392.635 18.1369C391.164 19.2142 389.398 19.8164 387.575 19.863C386.511 19.8469 385.471 20.17 384.603 20.7853L384.509 20.8483C383.663 21.4948 383.043 22.3911 382.735 23.41C382.155 25.1404 381.053 26.6491 379.582 27.7294C378.109 28.8096 376.34 29.4122 374.514 29.4557C373.451 29.4444 372.412 29.767 371.542 30.3779V30.3779C370.716 31.0244 370.11 31.911 369.808 32.9159C369.219 34.6419 368.12 36.1482 366.656 37.2354C365.183 38.3108 363.418 38.9103 361.595 38.9536C360.499 38.9439 359.428 39.2896 358.545 39.9389C357.648 40.5873 356.989 41.5123 356.669 42.5716C356.087 44.3013 354.986 45.8096 353.516 46.891C353.308 47.0448 353.072 47.1561 352.821 47.2183C352.57 47.2806 352.309 47.2927 352.054 47.2539C351.798 47.215 351.553 47.1261 351.332 46.9921C351.11 46.8582 350.918 46.6818 350.765 46.4732C350.459 46.0511 350.333 45.5254 350.412 45.0103C350.492 44.4953 350.772 44.0324 351.191 43.7224C352.076 43.0646 352.726 42.1385 353.043 41.0819C353.629 39.3435 354.745 37.8327 356.235 36.7624C357.694 35.6773 359.454 35.0739 361.272 35.0362C362.374 35.0499 363.451 34.7102 364.346 34.0667C365.23 33.4037 365.879 32.4759 366.198 31.4183C366.76 29.7677 367.796 28.3198 369.178 27.2565V27.2565L369.249 27.2093L369.391 27.1068C370.818 26.1138 372.508 25.5653 374.246 25.5304C375.346 25.5385 376.42 25.1961 377.312 24.553C378.198 23.8952 378.847 22.969 379.165 21.9124C379.751 20.1957 380.852 18.7013 382.317 17.6324C383.775 16.5659 385.525 15.9716 387.33 15.9298C388.43 15.9447 389.505 15.6047 390.397 14.9603C391.282 14.3025 391.932 13.3765 392.249 12.3198C392.836 10.5819 393.952 9.07146 395.441 8.00043C395.689 7.82929 395.972 7.7161 396.269 7.66934V7.66934Z" fill="#B5AEFF" stroke="#2E2A47" stroke-width="1.4" stroke-miterlimit="10"/>
<path d="M349.835 25.7212H350.032C350.291 25.691 350.536 25.5874 350.739 25.4226C350.941 25.2578 351.093 25.0387 351.175 24.791L351.703 23.2619L353.279 23.3802H353.374C353.612 23.3816 353.846 23.3222 354.054 23.2077C354.262 23.0932 354.438 22.9273 354.564 22.7259C354.709 22.5016 354.786 22.2402 354.786 21.9732C354.786 21.7061 354.709 21.4447 354.564 21.2204L351.932 17.2321C351.725 16.9228 351.405 16.7075 351.041 16.633C350.949 16.6249 350.857 16.6249 350.765 16.633C350.485 16.6294 350.211 16.709 349.977 16.8616L346.43 19.2263C346.275 19.3252 346.143 19.4545 346.04 19.6062C345.937 19.758 345.866 19.929 345.831 20.1091C345.793 20.2899 345.791 20.4764 345.827 20.6578C345.862 20.8392 345.933 21.0117 346.036 21.1652L348.668 25.1063C348.796 25.2981 348.97 25.4548 349.173 25.5622C349.377 25.6696 349.605 25.7242 349.835 25.7212V25.7212Z" fill="#C2E6F5"/>
<path d="M350.757 17.1921C350.6 17.1918 350.446 17.2385 350.316 17.3262L346.761 19.6908C346.672 19.7475 346.596 19.8214 346.536 19.908C346.477 19.9946 346.435 20.0923 346.414 20.1953C346.392 20.2992 346.391 20.4065 346.411 20.5108C346.431 20.6151 346.473 20.7143 346.532 20.8022L349.173 24.7906C349.245 24.9001 349.343 24.99 349.459 25.0519C349.574 25.1138 349.704 25.146 349.835 25.1453H349.945C350.094 25.1274 350.234 25.0674 350.35 24.9725C350.466 24.8776 350.553 24.7516 350.599 24.6093L351.246 22.7412C351.254 22.7162 351.27 22.6945 351.291 22.679C351.312 22.6634 351.338 22.6549 351.364 22.6545V22.6545L353.327 22.7886H353.382C353.519 22.7907 353.655 22.7569 353.775 22.6905C353.895 22.6241 353.996 22.5275 354.068 22.4101C354.149 22.2831 354.192 22.1355 354.192 21.9846C354.192 21.8337 354.149 21.6859 354.068 21.5589L351.427 17.6178C351.369 17.5284 351.294 17.4517 351.206 17.3921C351.118 17.3325 351.019 17.2913 350.915 17.271C350.862 17.2629 350.809 17.2629 350.757 17.271M350.757 16.0887C350.89 16.0858 351.022 16.099 351.151 16.1281C351.407 16.1789 351.651 16.2804 351.868 16.4265C352.084 16.5727 352.269 16.7607 352.412 16.9794L355.053 20.9205C355.258 21.2309 355.372 21.5927 355.382 21.9648C355.392 22.3369 355.297 22.7042 355.108 23.025V23.0723C354.93 23.3587 354.681 23.5946 354.386 23.7575C354.091 23.9203 353.758 24.0046 353.421 24.0023H353.287L352.129 23.9157L351.75 25.0113C351.633 25.3634 351.418 25.6748 351.131 25.9093C350.843 26.1438 350.495 26.2917 350.126 26.3355C350.04 26.3434 349.953 26.3434 349.866 26.3355C349.538 26.3353 349.216 26.2538 348.927 26.0984C348.638 25.9429 348.392 25.7184 348.211 25.4448L345.578 21.5038C345.288 21.0654 345.183 20.5296 345.287 20.014C345.371 19.4887 345.66 19.0181 346.091 18.7056L349.646 16.3409C349.969 16.1224 350.351 16.0069 350.741 16.0098L350.757 16.0887Z" fill="black"/>
<path d="M418.607 132.649C418.922 132.649 419.229 132.547 419.481 132.357L423.651 129.204C423.96 128.968 424.163 128.62 424.219 128.235C424.249 128.044 424.24 127.85 424.193 127.663C424.145 127.476 424.06 127.3 423.943 127.147L421.168 123.435C421.053 123.279 420.908 123.148 420.742 123.049C420.575 122.95 420.391 122.886 420.199 122.859H419.986C419.67 122.859 419.363 122.962 419.111 123.151L414.949 126.304C414.727 126.465 414.556 126.687 414.455 126.942C414.355 127.198 414.329 127.477 414.382 127.746C414.431 128.016 414.556 128.267 414.741 128.469C414.927 128.671 415.165 128.817 415.43 128.889L417.156 129.378V131.167C417.156 131.436 417.229 131.701 417.368 131.931C417.507 132.162 417.706 132.35 417.944 132.476C418.148 132.585 418.375 132.644 418.607 132.649V132.649Z" fill="#C2E6F5"/>
<path d="M420.025 123.475C419.838 123.477 419.656 123.538 419.505 123.648L415.343 126.801C415.21 126.897 415.107 127.029 415.047 127.181C414.987 127.333 414.972 127.5 415.004 127.66C415.034 127.821 415.108 127.971 415.218 128.092C415.328 128.213 415.47 128.301 415.627 128.346L417.692 128.922C417.722 128.929 417.748 128.946 417.767 128.97C417.786 128.995 417.795 129.025 417.795 129.056V131.2C417.794 131.36 417.835 131.517 417.916 131.656C417.996 131.795 418.112 131.909 418.252 131.988V131.988C418.377 132.05 418.514 132.082 418.654 132.082C418.842 132.084 419.025 132.023 419.174 131.909L423.344 128.796C423.436 128.726 423.514 128.639 423.573 128.539C423.631 128.438 423.668 128.327 423.682 128.212C423.699 128.099 423.693 127.983 423.664 127.873C423.636 127.762 423.586 127.657 423.517 127.566L420.742 123.853C420.674 123.759 420.586 123.68 420.486 123.621C420.386 123.561 420.275 123.522 420.159 123.507H420.033M420.033 122.324C420.133 122.316 420.233 122.316 420.333 122.324C420.871 122.397 421.359 122.68 421.688 123.112L424.463 126.825C424.626 127.041 424.745 127.288 424.813 127.55C424.881 127.813 424.896 128.086 424.857 128.354C424.781 128.892 424.498 129.378 424.069 129.71L419.899 132.863C419.545 133.13 419.113 133.274 418.669 133.273C418.344 133.271 418.024 133.195 417.731 133.052H417.692C417.359 132.874 417.081 132.608 416.889 132.282C416.697 131.957 416.599 131.585 416.604 131.207V129.868L415.312 129.505C414.944 129.404 414.612 129.204 414.351 128.926C414.091 128.647 413.913 128.302 413.838 127.928C413.765 127.551 413.8 127.16 413.94 126.802C414.079 126.444 414.317 126.132 414.626 125.903L418.788 122.75C419.143 122.484 419.574 122.341 420.017 122.34L420.033 122.324Z" fill="black"/>
<path fill-rule="evenodd" clip-rule="evenodd" d="M225.21 44.2435L228.45 43.7548C228.611 43.7394 228.774 43.7743 228.915 43.8547C229.056 43.9351 229.169 44.0571 229.238 44.204L230.546 47.2151C230.608 47.3435 230.703 47.4528 230.822 47.5314C230.941 47.6099 231.079 47.6549 231.221 47.6613C231.363 47.6678 231.505 47.6356 231.63 47.5681C231.756 47.5006 231.861 47.4004 231.934 47.2781L235.772 40.3261C235.867 40.1464 235.889 39.9371 235.833 39.7418C235.777 39.5464 235.648 39.3802 235.473 39.2777L229.269 35.849C229.089 35.7549 228.879 35.7343 228.683 35.7916C228.488 35.8489 228.322 35.9796 228.221 36.1564L224.383 43.1084C224.317 43.2381 224.288 43.3834 224.3 43.5283C224.311 43.6732 224.363 43.8122 224.448 43.9296C224.534 44.0471 224.651 44.1385 224.785 44.1939C224.919 44.2493 225.067 44.2665 225.21 44.2435Z" stroke="#B5AEFF" stroke-width="1.43" stroke-miterlimit="10"/>
<path d="M330.153 169.405C330.175 169.406 330.197 169.402 330.217 169.394C330.238 169.386 330.256 169.374 330.271 169.358C330.287 169.343 330.3 169.324 330.308 169.304C330.317 169.284 330.321 169.262 330.321 169.24C330.321 169.218 330.317 169.196 330.308 169.176C330.3 169.155 330.287 169.137 330.271 169.121C329.253 167.996 328.626 166.573 328.482 165.062C328.301 162.548 330.673 161.121 333.101 160.853C333.465 160.816 333.816 160.7 334.13 160.513C334.445 160.327 334.715 160.074 334.922 159.773C335.274 159.25 335.519 158.662 335.64 158.044C335.762 157.425 335.759 156.789 335.631 156.171C335.364 154.918 334.762 153.76 333.889 152.821C333.874 152.805 333.855 152.793 333.835 152.784C333.815 152.776 333.793 152.771 333.771 152.771C333.749 152.771 333.727 152.776 333.707 152.784C333.687 152.793 333.668 152.805 333.653 152.821C333.623 152.853 333.606 152.896 333.606 152.939C333.606 152.983 333.623 153.026 333.653 153.058C334.475 153.944 335.049 155.031 335.316 156.211C335.434 156.782 335.437 157.371 335.324 157.943C335.212 158.516 334.987 159.06 334.662 159.545C334.482 159.806 334.248 160.026 333.976 160.189C333.704 160.352 333.4 160.455 333.085 160.491C330.492 160.79 327.97 162.319 328.159 165.062C328.317 166.646 328.977 168.137 330.043 169.319C330.055 169.34 330.07 169.358 330.089 169.373C330.108 169.388 330.13 169.399 330.153 169.405Z" fill="#B5AEFF" stroke="#B5AEFF" stroke-width="0.3" stroke-miterlimit="10"/>
<path d="M335.568 164.865C337.27 164.83 338.905 164.196 340.187 163.076C340.217 163.043 340.233 163.001 340.233 162.957C340.233 162.913 340.217 162.871 340.187 162.839C340.155 162.809 340.112 162.792 340.069 162.792C340.025 162.792 339.982 162.809 339.95 162.839C338.731 163.91 337.174 164.519 335.552 164.557C333.274 164.486 332.683 162.745 332.052 160.9C331.87 160.323 331.654 159.757 331.406 159.205C331.187 158.719 330.848 158.296 330.42 157.976C329.993 157.656 329.491 157.45 328.963 157.377C327.994 157.271 327.014 157.382 326.093 157.702C325.173 158.023 324.336 158.544 323.642 159.229C323.625 159.244 323.612 159.262 323.603 159.282C323.594 159.303 323.589 159.325 323.589 159.347C323.589 159.37 323.594 159.392 323.603 159.412C323.612 159.433 323.625 159.451 323.642 159.465C323.658 159.481 323.676 159.494 323.696 159.502C323.717 159.511 323.738 159.515 323.76 159.515C323.782 159.515 323.804 159.511 323.825 159.502C323.845 159.494 323.863 159.481 323.879 159.465C324.533 158.816 325.324 158.322 326.194 158.018C327.064 157.714 327.991 157.608 328.907 157.708C329.383 157.775 329.834 157.961 330.218 158.249C330.603 158.537 330.908 158.918 331.107 159.355C331.349 159.894 331.559 160.447 331.737 161.01C332.399 162.855 333.053 164.786 335.568 164.865Z" fill="#B5AEFF" stroke="#B5AEFF" stroke-width="0.3" stroke-miterlimit="10"/>
<path d="M336.404 168.302C336.448 168.302 336.49 168.284 336.521 168.253C336.552 168.222 336.569 168.18 336.569 168.136C336.569 168.092 336.552 168.05 336.521 168.019C336.49 167.988 336.448 167.971 336.404 167.971C335.479 167.948 334.571 167.713 333.751 167.283C332.931 166.854 332.221 166.243 331.674 165.496C331.348 165.045 331.147 164.516 331.092 163.962C331.037 163.408 331.129 162.849 331.359 162.343C331.567 161.906 331.81 161.487 332.084 161.09C332.778 160.01 333.566 158.78 332.983 157.259C332.045 154.957 329.523 153.988 327.465 153.854C327.444 153.853 327.422 153.856 327.401 153.863C327.381 153.871 327.362 153.882 327.346 153.897C327.33 153.911 327.317 153.929 327.308 153.949C327.298 153.968 327.293 153.99 327.292 154.011C327.291 154.033 327.294 154.055 327.302 154.075C327.309 154.096 327.32 154.115 327.335 154.131C327.35 154.147 327.367 154.16 327.387 154.169C327.407 154.178 327.428 154.184 327.45 154.185C329.389 154.319 331.785 155.225 332.668 157.338C333.188 158.701 332.478 159.805 331.793 160.877C331.509 161.29 331.258 161.725 331.044 162.177C330.802 162.732 330.707 163.339 330.767 163.941C330.828 164.543 331.043 165.119 331.391 165.614C331.972 166.407 332.728 167.056 333.6 167.51C334.472 167.963 335.437 168.21 336.42 168.231L336.404 168.302Z" fill="#B5AEFF" stroke="#B5AEFF" stroke-width="0.3" stroke-miterlimit="10"/>
<path d="M324.935 165.779C324.957 165.779 324.979 165.775 325 165.766C325.021 165.757 325.039 165.744 325.055 165.728C325.07 165.712 325.082 165.693 325.09 165.672C325.098 165.651 325.101 165.628 325.1 165.606C325.1 164.651 325.328 163.71 325.765 162.861C326.202 162.012 326.837 161.281 327.615 160.727C328.099 160.404 328.661 160.218 329.242 160.187C329.823 160.157 330.402 160.283 330.917 160.554C331.318 160.752 331.699 160.989 332.052 161.263C332.425 161.608 332.862 161.876 333.338 162.051C333.814 162.227 334.32 162.308 334.827 162.288C335.466 162.188 336.078 161.955 336.621 161.603C337.164 161.251 337.627 160.789 337.98 160.246C338.7 159.182 339.107 157.936 339.154 156.652C339.154 156.607 339.137 156.564 339.106 156.532C339.075 156.5 339.033 156.481 338.989 156.479C338.946 156.48 338.905 156.497 338.873 156.526C338.841 156.554 338.821 156.594 338.815 156.636C338.721 159.001 337.294 161.594 334.756 161.957C333.813 161.983 332.897 161.634 332.21 160.987C331.842 160.703 331.446 160.457 331.028 160.254C330.462 159.958 329.827 159.819 329.189 159.852C328.551 159.885 327.934 160.09 327.402 160.443C326.579 161.032 325.907 161.807 325.442 162.706C324.978 163.605 324.734 164.602 324.73 165.614C324.731 165.639 324.737 165.663 324.748 165.686C324.759 165.708 324.775 165.728 324.794 165.744C324.814 165.76 324.836 165.771 324.861 165.777C324.885 165.783 324.91 165.784 324.935 165.779Z" fill="#B5AEFF" stroke="#B5AEFF" stroke-width="0.3" stroke-miterlimit="10"/>
<path d="M327.174 168.111H327.221C327.262 168.095 327.296 168.065 327.316 168.026C327.337 167.987 327.342 167.941 327.331 167.899C326.975 167.007 326.829 166.046 326.904 165.089C326.979 164.132 327.274 163.206 327.765 162.381C328.498 161.412 329.759 160.537 331.107 161.01C332.557 161.396 334.047 161.798 335.45 160.789C336.364 159.982 336.996 158.905 337.254 157.714C337.512 156.523 337.383 155.28 336.885 154.168C336.876 154.147 336.863 154.129 336.848 154.114C336.832 154.098 336.813 154.086 336.792 154.078C336.772 154.07 336.75 154.066 336.728 154.066C336.706 154.067 336.684 154.072 336.664 154.081C336.625 154.098 336.594 154.13 336.578 154.17C336.561 154.21 336.561 154.254 336.577 154.294C337.048 155.34 337.173 156.508 336.933 157.63C336.694 158.751 336.102 159.767 335.245 160.529C333.984 161.427 332.636 161.073 331.201 160.686C329.688 160.15 328.293 161.104 327.489 162.176C326.973 163.04 326.66 164.01 326.576 165.012C326.491 166.015 326.636 167.024 327 167.962C327.008 168.003 327.029 168.04 327.06 168.067C327.092 168.095 327.132 168.11 327.174 168.111V168.111Z" fill="#B5AEFF" stroke="#B5AEFF" stroke-width="0.3" stroke-miterlimit="10"/>
<path d="M336.443 166.473C337.249 166.471 338.049 166.33 338.808 166.055C338.828 166.048 338.848 166.037 338.864 166.022C338.881 166.008 338.894 165.99 338.904 165.97C338.913 165.951 338.919 165.929 338.92 165.907C338.921 165.885 338.918 165.863 338.91 165.843C338.903 165.822 338.892 165.803 338.877 165.786C338.863 165.77 338.845 165.757 338.825 165.748C338.805 165.739 338.783 165.735 338.761 165.735C338.739 165.735 338.717 165.739 338.697 165.748C337.893 166.047 337.037 166.179 336.181 166.135C335.324 166.092 334.485 165.874 333.716 165.496C333.231 165.236 332.809 164.873 332.48 164.431C332.152 163.99 331.925 163.481 331.816 162.942C331.739 162.323 331.837 161.695 332.1 161.129C332.379 160.501 332.48 159.808 332.392 159.127C332.282 158.553 332.046 158.01 331.702 157.539C331.357 157.067 330.911 156.678 330.397 156.4C329.563 155.995 328.655 155.766 327.729 155.727C326.803 155.687 325.879 155.839 325.014 156.171C324.971 156.187 324.937 156.219 324.917 156.261C324.898 156.302 324.896 156.349 324.911 156.392C324.929 156.433 324.962 156.466 325.003 156.483C325.044 156.501 325.09 156.502 325.132 156.486C325.951 156.168 326.826 156.022 327.703 156.057C328.581 156.092 329.442 156.308 330.232 156.691C330.705 156.946 331.115 157.303 331.431 157.737C331.748 158.17 331.963 158.67 332.061 159.198C332.14 159.819 332.045 160.449 331.785 161.019C331.498 161.642 331.397 162.334 331.493 163.013C331.611 163.599 331.858 164.152 332.215 164.632C332.572 165.111 333.03 165.506 333.558 165.787C334.448 166.252 335.439 166.488 336.443 166.473V166.473Z" fill="#B5AEFF" stroke="#B5AEFF" stroke-width="0.3" stroke-miterlimit="10"/>
<path d="M333.4 169.468C333.432 169.467 333.462 169.458 333.488 169.441C333.515 169.425 333.536 169.401 333.55 169.373C333.56 169.354 333.565 169.332 333.566 169.311C333.567 169.289 333.564 169.267 333.557 169.247C333.549 169.226 333.538 169.207 333.523 169.191C333.509 169.175 333.491 169.162 333.471 169.153C332.66 168.786 331.934 168.255 331.337 167.595C330.74 166.934 330.286 166.158 330.003 165.314C329.396 163.17 330.949 161.972 332.462 160.813C332.738 160.593 333.03 160.372 333.298 160.151C334.575 159.166 334.528 157.282 333.913 155.855C333.191 154.451 332.008 153.338 330.563 152.703C330.543 152.692 330.522 152.686 330.5 152.684C330.478 152.682 330.456 152.685 330.435 152.693C330.414 152.7 330.395 152.712 330.379 152.727C330.363 152.742 330.351 152.761 330.342 152.781C330.332 152.801 330.325 152.822 330.324 152.844C330.322 152.866 330.325 152.888 330.332 152.909C330.34 152.93 330.352 152.949 330.367 152.965C330.382 152.981 330.401 152.994 330.421 153.002C331.781 153.607 332.893 154.658 333.574 155.982C334.141 157.29 334.197 159.008 333.054 159.883C332.786 160.104 332.502 160.325 332.226 160.537C330.705 161.712 328.979 163.036 329.656 165.401C329.95 166.289 330.425 167.107 331.05 167.803C331.676 168.499 332.438 169.057 333.29 169.444L333.4 169.468Z" fill="#B5AEFF" stroke="#B5AEFF" stroke-width="0.3" stroke-miterlimit="10"/>
<path d="M335.001 163.429C336.144 163.376 337.249 163.004 338.191 162.355C339.132 161.706 339.873 160.805 340.329 159.756C340.338 159.736 340.343 159.714 340.344 159.692C340.344 159.67 340.34 159.648 340.332 159.627C340.324 159.607 340.312 159.588 340.297 159.572C340.281 159.556 340.263 159.544 340.242 159.535C340.223 159.526 340.201 159.521 340.18 159.519C340.158 159.518 340.136 159.522 340.116 159.529C340.095 159.536 340.076 159.548 340.06 159.562C340.044 159.577 340.031 159.594 340.022 159.614C339.588 160.602 338.889 161.45 338.003 162.065C337.117 162.68 336.078 163.038 335.001 163.098C333.661 163.098 332.975 162.129 332.25 161.104C331.92 160.6 331.536 160.132 331.107 159.709C330.69 159.289 330.173 158.983 329.605 158.817C329.037 158.652 328.437 158.633 327.86 158.763C326.906 159.023 326.025 159.498 325.283 160.151C324.542 160.804 323.959 161.618 323.579 162.53C323.564 162.57 323.564 162.615 323.58 162.654C323.596 162.694 323.627 162.726 323.666 162.743C323.686 162.752 323.708 162.757 323.73 162.758C323.752 162.759 323.774 162.755 323.795 162.747C323.815 162.738 323.834 162.726 323.85 162.711C323.866 162.695 323.878 162.677 323.887 162.657C324.243 161.794 324.792 161.024 325.491 160.407C326.191 159.789 327.022 159.34 327.923 159.094C328.448 158.973 328.995 158.988 329.512 159.138C330.03 159.289 330.5 159.569 330.878 159.953C331.292 160.361 331.659 160.813 331.974 161.301C332.691 162.349 333.479 163.429 335.001 163.429Z" fill="#B5AEFF" stroke="#B5AEFF" stroke-width="0.3" stroke-miterlimit="10"/>
</g>
</g>
<path d="M139.497 201.736H348.035V219.668H139.497V201.736Z" stroke="#5E58A5" stroke-width="2.37" stroke-miterlimit="10"/>
<path d="M109.758 219.676H318.297V237.608H109.758V219.676Z" stroke="#5E58A5" stroke-width="2.37" stroke-miterlimit="10"/>
<path d="M84.6363 237.607H293.175V255.539H84.6363V237.607Z" stroke="#5E58A5" stroke-width="2.37" stroke-miterlimit="10"/>
<path d="M56.8521 255.539H265.391V273.471H56.8521V255.539Z" stroke="#5E58A5" stroke-width="2.37" stroke-miterlimit="10"/>
<path d="M27.1216 273.479H235.66V291.41H27.1216V273.479Z" stroke="#5E58A5" stroke-width="2.37" stroke-miterlimit="10"/>
<path d="M2.00053 291.41H210.539V309.342H2.00053V291.41Z" stroke="#5E58A5" stroke-width="2.37" stroke-miterlimit="10"/>
<path d="M182.148 183.299H387.076V201.231H182.148V183.299Z" stroke="#5E58A5" stroke-width="2.37" stroke-miterlimit="10"/>
<path d="M390.517 328.162H173.778V346.799H390.517V328.162Z" stroke="#5E58A5" stroke-width="2.37" stroke-miterlimit="10"/>
<path d="M421.423 346.807H204.685V365.444H421.423V346.807Z" stroke="#5E58A5" stroke-width="2.37" stroke-miterlimit="10"/>
<path d="M447.533 365.443H230.795V384.08H447.533V365.443Z" stroke="#5E58A5" stroke-width="2.37" stroke-miterlimit="10"/>
<path d="M476.409 384.08H259.671V402.717H476.409V384.08Z" stroke="#5E58A5" stroke-width="2.37" stroke-miterlimit="10"/>
<path d="M507.31 402.727H290.571V421.364H507.31V402.727Z" stroke="#5E58A5" stroke-width="2.37" stroke-miterlimit="10"/>
<path d="M533.418 421.363H316.68V440H533.418V421.363Z" stroke="#5E58A5" stroke-width="2.37" stroke-miterlimit="10"/>
<path d="M346.188 309H133.201V327.637H346.188V309Z" stroke="#5E58A5" stroke-width="2.37" stroke-miterlimit="10"/>
<defs>
<clipPath id="clip0_746_11538">
<rect width="213.607" height="182.866" fill="white" transform="matrix(-1 0 0 1 424.865 0)"/>
</clipPath>
<clipPath id="clip1_746_11538">
<rect width="201.106" height="170.46" fill="white" transform="matrix(-1 0 0 1 424.865 6.30664)"/>
</clipPath>
</defs>
</svg>
